<svg xmlns="http://www.w3.org/2000/svg" width="40" height="40" viewBox="0 0 40 40">
  <defs>
    <style>
      .cls-1 {
        fill: #fc861d;
        fill-rule: evenodd;
      }
    </style>
  </defs>
  <path id="cat-list-icon.svg" class="cls-1" d="M2514.95,14474.3a19.4,19.4,0,0,0-19.22-18.3H2495a20,20,0,1,0,20,20v-1.6Zm-11.21-1.1-10.09,10.1a2.057,2.057,0,0,1-1.29.5,2.03,2.03,0,0,1-1.28-.5l-3.82-3.8a1.828,1.828,0,0,1,2.57-2.6l2.53,2.5,8.81-8.8A1.828,1.828,0,0,1,2503.74,14473.2Z" transform="translate(-2475 -14456)"/>
</svg>
