<svg xmlns="http://www.w3.org/2000/svg" width="32.03" height="32" viewBox="0 0 32.03 32">
  <defs>
    <style>
      .cls-1 {
        fill-rule: evenodd;
      }
    </style>
  </defs>
  <path id="linked.svg" class="cls-1" d="M3086.26,13264h-6.87v-21.6h6.87v21.6Zm-3.44-24.5h-0.04a3.751,3.751,0,1,1,.09-7.5,3.631,3.631,0,0,1,3.84,3.7A3.694,3.694,0,0,1,3082.82,13239.5Zm28.19,24.5h-6.86v-11.5c0-2.9-1-4.9-3.48-4.9a3.732,3.732,0,0,0-3.52,2.6,5.394,5.394,0,0,0-.23,1.8v12h-6.86s0.08-19.6,0-21.6h6.86v3.1a6.732,6.732,0,0,1,6.18-3.6c4.52,0,7.91,3.1,7.91,9.7v12.4Zm-14.13-18.5h0Z" transform="translate(-3078.97 -13232)"/>
</svg>
