<svg id="bluematter-logo.svg" xmlns="http://www.w3.org/2000/svg" width="252" height="50" viewBox="0 0 252 50">
  <defs>
    <style>
      .cls-1 {
        fill: #1d222c;
      }

      .cls-1, .cls-2 {
        fill-rule: evenodd;
      }

      .cls-2 {
        fill: #007eff;
      }
    </style>
  </defs>
  <path class="cls-1" d="M962,72.618V45h10.87c4.831,0,8,2.719,8,6.889a6.109,6.109,0,0,1-4.85,6.012v0.153a6.6,6.6,0,0,1,6.19,6.755c0,4.862-3.491,7.809-9.285,7.809H962Zm4.227-15.865h4.738c3.661,0,5.68-1.533,5.68-4.268,0-2.566-1.737-3.982-4.793-3.982h-5.625v8.25Zm5.832,12.361c3.812,0,5.832-1.588,5.832-4.573s-2.077-4.516-6.078-4.516h-5.586v9.09h5.832ZM985.514,45h4.077V72.618h-4.077V45ZM1010.8,72.618h-1.51a2.411,2.411,0,0,1-2.39-2.431V69.211h-0.1a6.211,6.211,0,0,1-6.15,3.771c-4.323,0-6.965-2.851-6.965-7.465V52.485h4.077v12.23c0,3.063,1.434,4.708,4.248,4.708,2.94,0,4.72-2.068,4.72-5.206V52.485h4.07V72.618Zm21.04-5.914c-0.56,3.676-4,6.3-8.55,6.3-5.83,0-9.36-4-9.36-10.355,0-6.317,3.59-10.528,9.2-10.528,5.51,0,8.94,3.944,8.94,10.049v1.417h-14.02v0.247c0,3.5,2.07,5.819,5.34,5.819a4.507,4.507,0,0,0,4.59-2.947h3.86Zm-13.77-6.009h9.92c-0.09-3.081-2.02-5.244-4.86-5.244S1018.28,57.651,1018.07,60.695Zm17.15-8.21h3.89V55.87h0.09a5.886,5.886,0,0,1,5.65-3.731,5.461,5.461,0,0,1,5.55,3.942h0.09a6.476,6.476,0,0,1,6.19-3.942c3.93,0,6.49,2.642,6.49,6.641V72.618h-4.09V59.775c0-2.6-1.38-4.1-3.8-4.1a4.063,4.063,0,0,0-4.09,4.365V72.618h-4V59.469a3.522,3.522,0,0,0-3.76-3.789,4.186,4.186,0,0,0-4.13,4.5v12.44h-4.08V52.485ZM1066.3,66.9c0-3.523,2.67-5.684,7.38-5.952l5.44-.327V59.067c0-2.238-1.49-3.579-3.98-3.579-2.36,0-3.83,1.148-4.19,2.95h-3.85c0.22-3.639,3.28-6.318,8.19-6.318,4.81,0,7.89,2.585,7.89,6.623V72.618h-1.51a2.413,2.413,0,0,1-2.4-2.431V69.308h-0.09a7.1,7.1,0,0,1-6.27,3.654C1069.02,72.962,1066.3,70.512,1066.3,66.9Zm12.82-1.818V63.489l-4.89.307c-2.43.171-3.81,1.261-3.81,2.986,0,1.761,1.43,2.908,3.62,2.908A4.787,4.787,0,0,0,1079.12,65.078Zm13.28-17.359V53.7h5.42v3.273h-5.42v9.886c0,1.742.76,2.526,2.42,2.526a8.877,8.877,0,0,0,1.34-.1V72.56a10.9,10.9,0,0,1-2.26.193c-4.03,0-5.59-1.551-5.59-5.437V56.972h-2.89V53.7h2.89V47.718h4.09Zm12.4,0V53.7h3.78v3.273h-3.78v9.886c0,1.742.76,2.526,2.42,2.526a8.98,8.98,0,0,0,1.34-.1V72.56a10.944,10.944,0,0,1-2.27.193c-4.02,0-5.58-1.551-5.58-5.437V56.972h-2.89V53.7h2.89V47.718h4.09ZM1128.47,66.7c-0.57,3.676-4,6.3-8.55,6.3-5.83,0-9.36-4-9.36-10.355,0-6.317,3.58-10.528,9.19-10.528,5.51,0,8.94,3.944,8.94,10.049v1.417h-14.02v0.247c0,3.5,2.08,5.819,5.34,5.819a4.507,4.507,0,0,0,4.59-2.947h3.87Zm-13.78-6.009h9.93c-0.1-3.081-2.02-5.244-4.87-5.244S1114.9,57.651,1114.69,60.695Zm17.16-8.21h3.88V55.91h0.1a4.79,4.79,0,0,1,4.77-3.751,7.2,7.2,0,0,1,1.4.153v3.845a5.78,5.78,0,0,0-1.83-.229c-2.62,0-4.25,1.78-4.25,4.631V72.618h-4.07V52.485Z" transform="translate(-890 -35)"/>
  <path class="cls-2" d="M906.625,45.068l-4.615-8.051L890,57.975h9.23A8.606,8.606,0,0,0,906.625,45.068ZM929.51,34.994H905.486l4.615,8.052a8.511,8.511,0,0,0,14.795,0Zm3.477,2.023-4.615,8.051a8.605,8.605,0,0,0,7.4,12.907H945Zm-33.76,25H890L902.01,82.976l4.614-8.051A8.605,8.605,0,0,0,899.227,62.017Zm27.212,12.413h0ZM910.1,76.947L905.486,85H929.51L924.9,76.947A8.511,8.511,0,0,0,910.1,76.947ZM945,62.017h-9.23a8.605,8.605,0,0,0-7.4,12.907l4.615,8.051Zm-18.56-16.455h0ZM915.748,63.049a3.484,3.484,0,0,0,4.781-1.29,3.539,3.539,0,0,0-1.281-4.816,3.486,3.486,0,0,0-4.781,1.29A3.539,3.539,0,0,0,915.748,63.049Z" transform="translate(-890 -35)"/>
</svg>
