<svg xmlns="http://www.w3.org/2000/svg" width="36" height="30" viewBox="0 0 36 30">
  <defs>
    <style>
      .cls-1 {
        fill-rule: evenodd;
      }
    </style>
  </defs>
  <path id="twitter.svg" class="cls-1" d="M3040.32,13242.5c0.46,10.6-7.28,22.5-21,22.5a20.933,20.933,0,0,1-11.32-3.4,14.418,14.418,0,0,0,10.93-3.1,7.522,7.522,0,0,1-6.9-5.3,7.484,7.484,0,0,0,3.34-.1,7.586,7.586,0,0,1-5.93-7.5,7.563,7.563,0,0,0,3.35.9,7.679,7.679,0,0,1-2.29-10.1,20.7,20.7,0,0,0,15.23,7.9,7.551,7.551,0,0,1,7.19-9.3,7.213,7.213,0,0,1,5.4,2.4,15.223,15.223,0,0,0,4.69-1.8,8.087,8.087,0,0,1-3.25,4.2,15.091,15.091,0,0,0,4.24-1.2A16.038,16.038,0,0,1,3040.32,13242.5Z" transform="translate(-3008 -13235)"/>
</svg>
